<svg xmlns="http://www.w3.org/2000/svg" xmlns:xlink="http://www.w3.org/1999/xlink" width="500" zoomAndPan="magnify" viewBox="0 0 375 374.999991" height="500" preserveAspectRatio="xMidYMid meet" version="1.0"><defs><clipPath id="cdc36353cf"><path d="M 97.011719 98.371094 L 281.511719 98.371094 L 281.511719 282.871094 L 97.011719 282.871094 Z M 97.011719 98.371094 " clip-rule="nonzero"/></clipPath><clipPath id="793c533f90"><path d="M 67.476562 69.652344 L 309.726562 69.652344 L 309.726562 311.902344 L 67.476562 311.902344 Z M 67.476562 69.652344 " clip-rule="nonzero"/></clipPath><clipPath id="a270cb47f9"><path d="M 18.476562 18.476562 L 365.726562 18.476562 L 365.726562 365.726562 L 18.476562 365.726562 Z M 18.476562 18.476562 " clip-rule="nonzero"/></clipPath><clipPath id="ac4ca45464"><path d="M 43.976562 45.109375 L 337.226562 45.109375 L 337.226562 338.359375 L 43.976562 338.359375 Z M 43.976562 45.109375 " clip-rule="nonzero"/></clipPath></defs><g clip-path="url(#cdc36353cf)"><path fill="#000000" d="M 189.261719 282.871094 C 138.296875 282.871094 97.011719 241.300781 97.011719 190.621094 C 97.011719 139.9375 138.296875 98.371094 189.261719 98.371094 C 240.226562 98.371094 281.511719 139.652344 281.511719 190.621094 C 281.511719 241.585938 239.941406 282.871094 189.261719 282.871094 Z M 189.261719 104.0625 C 141.425781 104.0625 102.707031 142.785156 102.707031 190.621094 C 102.707031 238.453125 141.425781 277.175781 189.261719 277.175781 C 237.09375 277.175781 275.816406 238.453125 275.816406 190.621094 C 275.816406 142.785156 236.808594 104.0625 189.261719 104.0625 Z M 189.261719 104.0625 " fill-opacity="1" fill-rule="nonzero"/></g><g clip-path="url(#793c533f90)"><path fill="#000000" d="M 188.601562 311.902344 C 121.683594 311.902344 67.476562 257.320312 67.476562 190.777344 C 67.476562 124.234375 121.683594 69.652344 188.601562 69.652344 C 255.519531 69.652344 309.726562 123.859375 309.726562 190.777344 C 309.726562 257.695312 255.148438 311.902344 188.601562 311.902344 Z M 188.601562 77.128906 C 125.796875 77.128906 74.957031 127.972656 74.957031 190.777344 C 74.957031 253.582031 125.796875 304.425781 188.601562 304.425781 C 251.410156 304.425781 302.25 253.582031 302.25 190.777344 C 302.25 127.972656 251.035156 77.128906 188.601562 77.128906 Z M 188.601562 77.128906 " fill-opacity="1" fill-rule="nonzero"/></g><g clip-path="url(#a270cb47f9)"><path fill="#000000" d="M 192.101562 365.726562 C 96.179688 365.726562 18.476562 287.488281 18.476562 192.101562 C 18.476562 96.714844 96.179688 18.476562 192.101562 18.476562 C 288.027344 18.476562 365.726562 96.179688 365.726562 192.101562 C 365.726562 288.027344 287.488281 365.726562 192.101562 365.726562 Z M 192.101562 29.195312 C 102.074219 29.195312 29.195312 102.074219 29.195312 192.101562 C 29.195312 282.132812 102.074219 355.011719 192.101562 355.011719 C 282.132812 355.011719 355.011719 282.132812 355.011719 192.101562 C 355.011719 102.074219 281.59375 29.195312 192.101562 29.195312 Z M 192.101562 29.195312 " fill-opacity="1" fill-rule="nonzero"/></g><g clip-path="url(#ac4ca45464)"><path fill="#000000" d="M 190.601562 338.359375 C 109.597656 338.359375 43.976562 272.285156 43.976562 191.734375 C 43.976562 111.179688 109.597656 45.109375 190.601562 45.109375 C 271.609375 45.109375 337.226562 110.726562 337.226562 191.734375 C 337.226562 272.738281 271.15625 338.359375 190.601562 338.359375 Z M 190.601562 54.160156 C 114.574219 54.160156 53.027344 115.707031 53.027344 191.734375 C 53.027344 267.761719 114.574219 329.308594 190.601562 329.308594 C 266.632812 329.308594 328.175781 267.761719 328.175781 191.734375 C 328.175781 115.707031 266.179688 54.160156 190.601562 54.160156 Z M 190.601562 54.160156 " fill-opacity="1" fill-rule="nonzero"/></g></svg>