<svg xmlns="http://www.w3.org/2000/svg" xmlns:xlink="http://www.w3.org/1999/xlink" width="500" zoomAndPan="magnify" viewBox="0 0 375 374.999991" height="500" preserveAspectRatio="xMidYMid meet" version="1.0"><defs><clipPath id="ab2a95ac26"><path d="M 109.238281 109.238281 L 269.738281 109.238281 L 269.738281 269.738281 L 109.238281 269.738281 Z M 109.238281 109.238281 " clip-rule="nonzero"/></clipPath><clipPath id="c27fdfb3ab"><path d="M 79.933594 82.652344 L 295.183594 82.652344 L 295.183594 297.902344 L 79.933594 297.902344 Z M 79.933594 82.652344 " clip-rule="nonzero"/></clipPath><clipPath id="68ddd4a426"><path d="M 57.695312 54.433594 L 325.445312 54.433594 L 325.445312 322.183594 L 57.695312 322.183594 Z M 57.695312 54.433594 " clip-rule="nonzero"/></clipPath><clipPath id="edf64f75bd"><path d="M 30.976562 30.476562 L 349.726562 30.476562 L 349.726562 349.226562 L 30.976562 349.226562 Z M 30.976562 30.476562 " clip-rule="nonzero"/></clipPath></defs><path fill="#000000" d="M 187.5 375 C 83.910156 375 0 290.507812 0 187.5 C 0 84.492188 83.910156 0 187.5 0 C 291.089844 0 375 83.910156 375 187.5 C 375 291.089844 290.507812 375 187.5 375 Z M 187.5 11.574219 C 90.277344 11.574219 11.574219 90.277344 11.574219 187.5 C 11.574219 284.722656 90.277344 363.425781 187.5 363.425781 C 284.722656 363.425781 363.425781 284.722656 363.425781 187.5 C 363.425781 90.277344 284.144531 11.574219 187.5 11.574219 Z M 187.5 11.574219 " fill-opacity="1" fill-rule="nonzero"/><g clip-path="url(#ab2a95ac26)"><path fill="#000000" d="M 189.488281 269.738281 C 145.152344 269.738281 109.238281 233.578125 109.238281 189.488281 C 109.238281 145.402344 145.152344 109.238281 189.488281 109.238281 C 233.824219 109.238281 269.738281 145.152344 269.738281 189.488281 C 269.738281 233.824219 233.578125 269.738281 189.488281 269.738281 Z M 189.488281 114.191406 C 147.878906 114.191406 114.191406 147.878906 114.191406 189.488281 C 114.191406 231.101562 147.878906 264.785156 189.488281 264.785156 C 231.101562 264.785156 264.785156 231.101562 264.785156 189.488281 C 264.785156 147.878906 230.851562 114.191406 189.488281 114.191406 Z M 189.488281 114.191406 " fill-opacity="1" fill-rule="nonzero"/></g><g clip-path="url(#c27fdfb3ab)"><path fill="#000000" d="M 187.558594 297.902344 C 128.101562 297.902344 79.933594 249.40625 79.933594 190.277344 C 79.933594 131.148438 128.101562 82.652344 187.558594 82.652344 C 247.019531 82.652344 295.183594 130.816406 295.183594 190.277344 C 295.183594 249.738281 246.6875 297.902344 187.558594 297.902344 Z M 187.558594 89.296875 C 131.753906 89.296875 86.578125 134.472656 86.578125 190.277344 C 86.578125 246.082031 131.753906 291.257812 187.558594 291.257812 C 243.367188 291.257812 288.542969 246.082031 288.542969 190.277344 C 288.542969 134.472656 243.03125 89.296875 187.558594 89.296875 Z M 187.558594 89.296875 " fill-opacity="1" fill-rule="nonzero"/></g><g clip-path="url(#68ddd4a426)"><path fill="#000000" d="M 191.570312 322.183594 C 117.609375 322.183594 57.695312 261.859375 57.695312 188.308594 C 57.695312 114.761719 117.609375 54.433594 191.570312 54.433594 C 265.53125 54.433594 325.445312 114.347656 325.445312 188.308594 C 325.445312 262.273438 265.121094 322.183594 191.570312 322.183594 Z M 191.570312 62.699219 C 122.152344 62.699219 65.960938 118.894531 65.960938 188.308594 C 65.960938 257.726562 122.152344 313.921875 191.570312 313.921875 C 260.988281 313.921875 317.183594 257.726562 317.183594 188.308594 C 317.183594 118.894531 260.574219 62.699219 191.570312 62.699219 Z M 191.570312 62.699219 " fill-opacity="1" fill-rule="nonzero"/></g><g clip-path="url(#edf64f75bd)"><path fill="#000000" d="M 190.351562 349.226562 C 102.304688 349.226562 30.976562 277.410156 30.976562 189.851562 C 30.976562 102.296875 102.304688 30.476562 190.351562 30.476562 C 278.402344 30.476562 349.726562 101.804688 349.726562 189.851562 C 349.726562 277.902344 277.910156 349.226562 190.351562 349.226562 Z M 190.351562 40.316406 C 107.714844 40.316406 40.816406 107.214844 40.816406 189.851562 C 40.816406 272.492188 107.714844 339.390625 190.351562 339.390625 C 272.992188 339.390625 339.890625 272.492188 339.890625 189.851562 C 339.890625 107.214844 272.5 40.316406 190.351562 40.316406 Z M 190.351562 40.316406 " fill-opacity="1" fill-rule="nonzero"/></g></svg>